# xmcd
# Copyright (C) 1995-1998 Ti Kan
#
# Track frame offsets:
#       150
#       81724
#       147020
#       229974
#
# Disc length: 3671 seconds
#
# Revision: 0
# Processed by: cddbd v1.5.2PL0 Copyright (c) Steve Scherf et al.
# Submitted via: CD-Transfer v1.0
#
DISCID=330e5504
DTITLE=Friday Night Life Mixed By Dj René - 
DYEAR=1900
DGENRE=
TTITLE0=Rnb Classics
TTITLE1=Latin
TTITLE2=Electro
TTITLE3=Rnb
EXTD=
EXTT0=
EXTT1=
EXTT2=
EXTT3=
PLAYORDER=
